<svg viewBox="0 0 80 80" fill="none" role="img" xmlns="http://www.w3.org/2000/svg" width="320" height="320"><mask id=":rae:" mask-type="alpha" maskUnits="userSpaceOnUse" x="0" y="0" width="80" height="80"><rect width="80" height="80" fill="#FFFFFF" ></rect></mask><g mask="url(#:rae:)"><rect width="10" height="10" fill="#8c0e48"></rect><rect x="20" width="10" height="10" fill="#8c0e48"></rect><rect x="40" width="10" height="10" fill="#80ab99"></rect><rect x="60" width="10" height="10" fill="#8c0e48"></rect><rect x="10" width="10" height="10" fill="#8c0e48"></rect><rect x="30" width="10" height="10" fill="#99822d"></rect><rect x="50" width="10" height="10" fill="#80ab99"></rect><rect x="70" width="10" height="10" fill="#99822d"></rect><rect y="10" width="10" height="10" fill="#e8dbad"></rect><rect y="20" width="10" height="10" fill="#8c0e48"></rect><rect y="30" width="10" height="10" fill="#99822d"></rect><rect y="40" width="10" height="10" fill="#99822d"></rect><rect y="50" width="10" height="10" fill="#8c0e48"></rect><rect y="60" width="10" height="10" fill="#b39e58"></rect><rect y="70" width="10" height="10" fill="#8c0e48"></rect><rect x="20" y="10" width="10" height="10" fill="#99822d"></rect><rect x="20" y="20" width="10" height="10" fill="#80ab99"></rect><rect x="20" y="30" width="10" height="10" fill="#80ab99"></rect><rect x="20" y="40" width="10" height="10" fill="#b39e58"></rect><rect x="20" y="50" width="10" height="10" fill="#8c0e48"></rect><rect x="20" y="60" width="10" height="10" fill="#80ab99"></rect><rect x="20" y="70" width="10" height="10" fill="#99822d"></rect><rect x="40" y="10" width="10" height="10" fill="#e8dbad"></rect><rect x="40" y="20" width="10" height="10" fill="#99822d"></rect><rect x="40" y="30" width="10" height="10" fill="#8c0e48"></rect><rect x="40" y="40" width="10" height="10" fill="#b39e58"></rect><rect x="40" y="50" width="10" height="10" fill="#e8dbad"></rect><rect x="40" y="60" width="10" height="10" fill="#b39e58"></rect><rect x="40" y="70" width="10" height="10" fill="#8c0e48"></rect><rect x="60" y="10" width="10" height="10" fill="#8c0e48"></rect><rect x="60" y="20" width="10" height="10" fill="#e8dbad"></rect><rect x="60" y="30" width="10" height="10" fill="#8c0e48"></rect><rect x="60" y="40" width="10" height="10" fill="#99822d"></rect><rect x="60" y="50" width="10" height="10" fill="#b39e58"></rect><rect x="60" y="60" width="10" height="10" fill="#8c0e48"></rect><rect x="60" y="70" width="10" height="10" fill="#80ab99"></rect><rect x="10" y="10" width="10" height="10" fill="#99822d"></rect><rect x="10" y="20" width="10" height="10" fill="#e8dbad"></rect><rect x="10" y="30" width="10" height="10" fill="#80ab99"></rect><rect x="10" y="40" width="10" height="10" fill="#8c0e48"></rect><rect x="10" y="50" width="10" height="10" fill="#e8dbad"></rect><rect x="10" y="60" width="10" height="10" fill="#e8dbad"></rect><rect x="10" y="70" width="10" height="10" fill="#99822d"></rect><rect x="30" y="10" width="10" height="10" fill="#99822d"></rect><rect x="30" y="20" width="10" height="10" fill="#8c0e48"></rect><rect x="30" y="30" width="10" height="10" fill="#8c0e48"></rect><rect x="30" y="40" width="10" height="10" fill="#99822d"></rect><rect x="30" y="50" width="10" height="10" fill="#99822d"></rect><rect x="30" y="60" width="10" height="10" fill="#e8dbad"></rect><rect x="30" y="70" width="10" height="10" fill="#8c0e48"></rect><rect x="50" y="10" width="10" height="10" fill="#80ab99"></rect><rect x="50" y="20" width="10" height="10" fill="#99822d"></rect><rect x="50" y="30" width="10" height="10" fill="#80ab99"></rect><rect x="50" y="40" width="10" height="10" fill="#99822d"></rect><rect x="50" y="50" width="10" height="10" fill="#8c0e48"></rect><rect x="50" y="60" width="10" height="10" fill="#80ab99"></rect><rect x="50" y="70" width="10" height="10" fill="#b39e58"></rect><rect x="70" y="10" width="10" height="10" fill="#8c0e48"></rect><rect x="70" y="20" width="10" height="10" fill="#8c0e48"></rect><rect x="70" y="30" width="10" height="10" fill="#8c0e48"></rect><rect x="70" y="40" width="10" height="10" fill="#80ab99"></rect><rect x="70" y="50" width="10" height="10" fill="#e8dbad"></rect><rect x="70" y="60" width="10" height="10" fill="#b39e58"></rect><rect x="70" y="70" width="10" height="10" fill="#e8dbad"></rect></g></svg>