<svg version="1.1" id="Capa_1" xmlns="http://www.w3.org/2000/svg" xmlns:xlink="http://www.w3.org/1999/xlink" viewBox="0 0 60 60" xml:space="preserve" fill="#000000"><g id="SVGRepo_bgCarrier" stroke-width="0"></g><g id="SVGRepo_tracerCarrier" stroke-linecap="round" stroke-linejoin="round"></g><g id="SVGRepo_iconCarrier"> <rect style="fill:#080e20;" width="60" height="60"></rect> <g> <path style="fill:#cae88b;" d="M20,2H2v18c0,0.552,0.448,1,1,1s1-0.448,1-1V4h16c0.552,0,1-0.448,1-1S20.552,2,20,2z"></path> <path style="fill:#cae88b;" d="M57,40c-0.552,0-1,0.448-1,1v15H41c-0.552,0-1,0.448-1,1s0.448,1,1,1h17V41 C58,40.448,57.552,40,57,40z"></path> <path style="fill:#cae88b;" d="M41,2c-0.552,0-1,0.448-1,1s0.448,1,1,1h15v16c0,0.552,0.448,1,1,1s1-0.448,1-1V2H41z"></path> <path style="fill:#cae88b;" d="M20,56H4V41c0-0.552-0.448-1-1-1s-1,0.448-1,1v17h18c0.552,0,1-0.448,1-1S20.552,56,20,56z"></path> </g> <g> <path style="fill:#cae88b;" d="M29.733,28.222c-0.508,0.211-0.749,0.795-0.54,1.305c0.021,0.052,2.14,5.439,1.55,22.35 c-0.019,0.552,0.413,1.015,0.965,1.034c0.012,0,0.023,0,0.035,0c0.536,0,0.98-0.425,0.999-0.965 c0.61-17.503-1.61-22.969-1.705-23.193C30.823,28.246,30.244,28.01,29.733,28.222z"></path> <path style="fill:#cae88b;" d="M50.51,20.515C47.036,12.305,39.032,7,30.118,7c-2.942,0-5.811,0.575-8.525,1.708 c-1.501,0.626-2.921,1.371-4.219,2.215c-0.463,0.301-0.595,0.92-0.293,1.383c0.301,0.463,0.921,0.595,1.383,0.293 c1.197-0.778,2.508-1.466,3.899-2.046C24.833,9.523,27.441,9,30.118,9c8.109,0,15.391,4.826,18.55,12.294 c1.26,2.978,1.981,5.929,2.337,9.571c0.05,0.517,0.485,0.903,0.994,0.903c0.032,0,0.065-0.001,0.098-0.005 c0.55-0.054,0.952-0.542,0.898-1.092C52.619,26.819,51.852,23.687,50.51,20.515z"></path> <path style="fill:#cae88b;" d="M9.479,29.028c0.15-5.575,2.073-10.222,5.715-13.811c0.394-0.388,0.398-1.021,0.011-1.414 c-0.388-0.394-1.021-0.399-1.414-0.011c-3.967,3.909-6.149,9.159-6.311,15.182c-0.092,3.412,0.451,7.121,1.614,11.025 c0.129,0.434,0.527,0.715,0.958,0.715c0.095,0,0.191-0.014,0.286-0.042c0.529-0.158,0.831-0.715,0.673-1.244 C9.909,35.727,9.394,32.228,9.479,29.028z"></path> <path style="fill:#cae88b;" d="M46.715,24.25c-2.232-6.581-9.395-12.125-15.966-12.36c-2.519-0.09-4.964,0.354-7.279,1.321 c-6.393,2.667-10.563,8.861-10.622,15.78v0v0v0v0c-0.014,1.633,0.206,3.262,0.653,4.842c0.234,0.825,0.473,1.703,0.6,2.57 c0.275,1.877,0.577,5.382,0.45,11.422c-0.011,0.552,0.427,1.009,0.979,1.021c0.007,0,0.014,0,0.021,0c0.542,0,0.988-0.434,1-0.979 c0.129-6.178-0.186-9.802-0.472-11.753c-0.144-0.986-0.402-1.937-0.655-2.826c-0.396-1.396-0.59-2.836-0.577-4.279l0,0l0,0 c0.052-6.116,3.738-11.593,9.392-13.951c2.046-0.854,4.213-1.251,6.437-1.167c5.712,0.204,12.189,5.244,14.144,11.004 c0.455,1.342,0.796,2.737,1.042,4.266c0.613,3.813,0.631,8.411,0.462,14.593c-0.015,0.552,0.42,1.012,0.972,1.027 c0.009,0,0.019,0,0.028,0c0.54,0,0.984-0.43,0.999-0.973c0.172-6.298,0.151-10.998-0.486-14.965 C47.575,27.201,47.208,25.7,46.715,24.25z"></path> <path style="fill:#cae88b;" d="M24.186,20.625c0.452-0.317,0.561-0.941,0.244-1.393c-0.317-0.451-0.941-0.561-1.393-0.244 c-3.13,2.197-4.993,5.835-5.111,9.982c0,0.001,0,0.002,0,0.003c-0.041,1.435,0.131,2.873,0.509,4.267 c0,0.003,0.026,0.096,0.027,0.099c0.854,3.129,1.176,9.135,0.905,16.911c-0.019,0.552,0.413,1.015,0.965,1.034 c0.012,0,0.023,0,0.035,0c0.536,0,0.98-0.425,0.999-0.965c0.282-8.087-0.055-14.141-0.999-17.596 c-0.329-1.212-0.478-2.455-0.442-3.694c0,0,0-0.001,0-0.002C20.024,25.519,21.577,22.456,24.186,20.625z"></path> <path style="fill:#cae88b;" d="M42.875,28.807c-0.309-1.602-0.751-3.07-1.352-4.49c-1.943-4.592-6.419-7.559-11.405-7.559 c-0.896,0-1.79,0.097-2.656,0.288c-0.54,0.119-0.88,0.652-0.762,1.191c0.118,0.54,0.651,0.879,1.191,0.762 c0.726-0.16,1.475-0.241,2.226-0.241c4.181,0,7.935,2.488,9.563,6.338c0.545,1.29,0.948,2.628,1.23,4.092c0,0.001,0,0.001,0,0.002 c0.763,3.96,0.741,8.945,0.403,18.619c-0.019,0.552,0.413,1.015,0.965,1.034c0.012,0,0.023,0,0.035,0 c0.536,0,0.98-0.425,0.999-0.965c0.343-9.832,0.361-14.919-0.439-19.07C42.875,28.809,42.875,28.808,42.875,28.807z"></path> <path style="fill:#cae88b;" d="M37.544,45.219c-0.002,0-0.005,0-0.007,0c-0.549,0-0.996,0.443-1,0.993 c-0.004,0.642-0.013,1.304-0.026,1.987c-0.01,0.552,0.429,1.008,0.981,1.019c0.006,0,0.013,0,0.02,0c0.543,0,0.989-0.435,1-0.981 c0.013-0.69,0.022-1.361,0.026-2.011C38.541,45.673,38.096,45.223,37.544,45.219z"></path> <path style="fill:#cae88b;" d="M37.506,43.153c0.008,0,0.016,0,0.023,0c0.552-0.012,0.989-0.47,0.977-1.022 c-0.128-5.617-0.64-10.246-1.479-13.389c-0.321-1.201-0.606-1.875-0.747-2.207c-1.05-2.481-3.469-4.084-6.163-4.084 c-0.888,0-1.755,0.174-2.577,0.517c-2.426,1.012-4.04,3.369-4.112,6.005c-0.024,0.884,0.125,1.752,0.426,2.528 c0.07,0.216,1.713,5.455,1.199,20.179c-0.019,0.552,0.413,1.015,0.965,1.034c0.012,0,0.023,0,0.035,0 c0.536,0,0.98-0.425,0.999-0.965c0.517-14.818-1.109-20.291-1.314-20.917c-0.224-0.579-0.329-1.186-0.312-1.804 c0.051-1.851,1.182-3.505,2.883-4.214c0.577-0.241,1.185-0.363,1.807-0.363c1.889,0,3.585,1.124,4.324,2.872 c0.119,0.282,0.368,0.869,0.652,1.936c0.557,2.085,1.255,6.02,1.413,12.918C36.52,42.721,36.965,43.153,37.506,43.153z"></path> </g> <rect y="27" style="fill:#FF5364;" width="60" height="2"></rect> </g></svg>