<svg width="85" height="40" viewBox="0 0 85 40" fill="none"><path d="M65.3405 11.9037L62.4489 13.5728C60.9242 12.3992 59.363 11.8477 57.31 11.8477C56.0068 11.8473 54.7209 12.1459 53.5513 12.7206C52.3817 13.2953 51.3596 14.1307 50.5638 15.1625C49.768 16.1942 49.2197 17.3949 48.9611 18.6719C48.7025 19.9489 48.7405 21.2681 49.0722 22.5281C49.4039 23.7881 50.0205 24.9552 50.8744 25.9394C51.7283 26.9237 52.7968 27.6989 53.9976 28.2053C55.1984 28.7117 56.4994 28.9358 57.8004 28.8603C59.1015 28.7849 60.3678 28.412 61.502 27.7702V28.653C61.5027 28.7119 61.5267 28.7681 61.5687 28.8094C61.6107 28.8507 61.6674 28.8737 61.7263 28.8733H65.4657C65.5244 28.8733 65.5808 28.8502 65.6225 28.8089C65.6643 28.7677 65.6881 28.7116 65.6887 28.653V12.0928C65.6884 12.0525 65.6771 12.013 65.6561 11.9785C65.635 11.9441 65.605 11.916 65.5693 11.8973C65.5336 11.8786 65.4934 11.8699 65.4531 11.8721C65.4128 11.8744 65.3739 11.8876 65.3405 11.9102V11.9037ZM57.31 24.8572C56.4203 24.8574 55.5504 24.5939 54.8105 24.0999C54.0705 23.6058 53.4937 22.9035 53.1531 22.0818C52.8124 21.26 52.7231 20.3557 52.8965 19.4833C53.07 18.6108 53.4983 17.8093 54.1274 17.1802C54.7564 16.5511 55.558 16.1227 56.4306 15.949C57.3033 15.7754 58.2079 15.8644 59.0299 16.2047C59.852 16.5451 60.5546 17.1215 61.049 17.8611C61.5433 18.6007 61.8072 19.4703 61.8072 20.3598C61.8072 21.5524 61.3334 22.6961 60.4901 23.5395C59.6467 24.3828 58.5029 24.8568 57.31 24.8572Z" fill="#210F60"></path><path d="M14.1368 6.00007C11.6911 5.9918 9.30718 6.76383 7.33498 8.20283C5.36277 9.64182 3.90618 11.672 3.17904 13.9953C3.16928 14.027 3.16712 14.0605 3.17271 14.0932C3.17831 14.1259 3.19151 14.1568 3.21126 14.1835C3.23102 14.2102 3.25678 14.232 3.28648 14.247C3.31619 14.2621 3.34902 14.27 3.38235 14.2701H7.78083C7.82004 14.2705 7.85857 14.26 7.89215 14.2398C7.92573 14.2197 7.95306 14.1907 7.9711 14.156C8.57747 13.0218 9.48884 12.0776 10.6034 11.4289C11.718 10.7802 12.9919 10.4526 14.2828 10.4826C18.0035 10.55 20.8837 13.5946 21.018 17.1033C21.0773 18.6637 20.6023 20.1979 19.6708 21.4547C18.7393 22.7115 17.4066 23.6163 15.8908 24.0211C14.375 24.4259 12.7659 24.3066 11.3272 23.6828C9.88838 23.059 8.70511 21.9677 7.9711 20.5875C7.95326 20.5532 7.92634 20.5245 7.89326 20.5044C7.86018 20.4842 7.8222 20.4735 7.78343 20.4734H3.38235C3.34902 20.4735 3.31619 20.4814 3.28648 20.4965C3.25678 20.5115 3.23102 20.5333 3.21126 20.56C3.19151 20.5867 3.17831 20.6176 3.17271 20.6503C3.16712 20.683 3.16928 20.7165 3.17904 20.7482C3.806 22.7554 4.97976 24.5504 6.57 25.9341C8.16025 27.3177 10.1048 28.2359 12.1877 28.5865C14.2707 28.9372 16.4105 28.7067 18.3698 27.9207C20.329 27.1346 22.031 25.8237 23.2868 24.1336C24.5426 22.4434 25.3031 20.44 25.4838 18.3458C25.6645 16.2517 25.2584 14.1487 24.3106 12.2702C23.3627 10.3918 21.9102 8.81147 20.1143 7.70463C18.3184 6.5978 16.2493 6.00777 14.1368 6.00007" fill="#1DCF9F"></path><path fill-rule="evenodd" clip-rule="evenodd" d="M7.62071 19.5167H2.22826C2.19817 19.5167 2.16838 19.5106 2.14061 19.4989C2.11283 19.4871 2.08761 19.4699 2.0664 19.4482C2.04518 19.4265 2.0284 19.4008 2.017 19.3725C2.00561 19.3442 1.99983 19.3139 2 19.2833V15.5908C1.99983 15.5602 2.00561 15.5299 2.017 15.5016C2.0284 15.4733 2.04518 15.4476 2.0664 15.4259C2.08761 15.4042 2.11283 15.387 2.14061 15.3752C2.16838 15.3635 2.19817 15.3574 2.22826 15.3574H7.62071C7.65079 15.3574 7.68058 15.3635 7.70835 15.3752C7.73613 15.387 7.76135 15.4042 7.78256 15.4259C7.80378 15.4476 7.82056 15.4733 7.83196 15.5016C7.84335 15.5299 7.84913 15.5602 7.84896 15.5908V19.2833C7.84913 19.3139 7.84335 19.3442 7.83196 19.3725C7.82056 19.4008 7.80378 19.4265 7.78256 19.4482C7.76135 19.4699 7.73613 19.4871 7.70835 19.4989C7.68058 19.5106 7.65079 19.5167 7.62071 19.5167" fill="#210F60"></path><path d="M46.842 15.5917C46.842 11.1513 43.2784 7.38116 38.8527 7.30078H30.544C30.4885 7.30078 30.4354 7.32277 30.3962 7.36192C30.357 7.40106 30.335 7.45415 30.335 7.50951V28.5382C30.335 28.5936 30.357 28.6467 30.3962 28.6858C30.4354 28.725 30.4885 28.747 30.544 28.747H34.292C34.3474 28.747 34.4006 28.725 34.4398 28.6858C34.479 28.6467 34.501 28.5936 34.501 28.5382V24.0499H38.793C43.2472 24.0019 46.842 20.6557 46.842 15.5969V15.5917ZM38.7008 19.8908H34.4997V11.4637H38.7008C40.8961 11.4637 42.6747 13.4084 42.6747 15.5956C42.6747 18.3182 40.8961 19.8895 38.7008 19.8895" fill="#210F60"></path><path d="M84.4585 11.8477H80.6353C80.5306 11.8477 80.4282 11.8786 80.3408 11.9365C80.2535 11.9944 80.185 12.0767 80.144 12.1733L76.0751 21.5912L72.0647 12.1733C72.0233 12.0767 71.9546 11.9944 71.867 11.9366C71.7795 11.8787 71.6769 11.8478 71.572 11.8477L67.7111 11.8685C67.6772 11.8691 67.644 11.8781 67.6143 11.8947C67.5847 11.9112 67.5596 11.9348 67.5412 11.9634C67.5229 11.992 67.5118 12.0247 67.509 12.0585C67.5062 12.0924 67.5118 12.1265 67.5252 12.1577L73.8274 26.9566L71.2145 33.0047C71.2009 33.0363 71.1954 33.0708 71.1984 33.1051C71.2015 33.1394 71.213 33.1724 71.232 33.2011C71.2509 33.2298 71.2767 33.2533 71.3071 33.2695C71.3374 33.2857 71.3713 33.2941 71.4056 33.2938H75.2275C75.3324 33.2939 75.4351 33.2631 75.5227 33.2052C75.6102 33.1473 75.6789 33.0649 75.7202 32.9682L84.6483 12.1368C84.6619 12.1053 84.6675 12.0709 84.6645 12.0367C84.6615 12.0026 84.6501 11.9696 84.6313 11.941C84.6124 11.9123 84.5868 11.8888 84.5567 11.8725C84.5265 11.8562 84.4928 11.8477 84.4585 11.8477V11.8477Z" fill="#210F60"></path></svg>