<?xml version="1.0" encoding="UTF-8"?>
<!DOCTYPE svg PUBLIC "-//W3C//DTD SVG 1.1//EN" "http://www.w3.org/Graphics/SVG/1.1/DTD/svg11.dtd">
<!-- Creator: CorelDRAW X7 -->
<svg xmlns="http://www.w3.org/2000/svg" xml:space="preserve" width="6.39181in" height="2.1166in" version="1.1" style="shape-rendering:geometricPrecision; text-rendering:geometricPrecision; image-rendering:optimizeQuality; fill-rule:evenodd; clip-rule:evenodd"
viewBox="0 0 10890 3606"
 xmlns:xlink="http://www.w3.org/1999/xlink">
 <defs>
  <style type="text/css">
   <![CDATA[
    .fil0 {fill:#1DCEA0}
    .fil2 {fill:#210E5F}
    .fil1 {fill:#211060}
   ]]>
  </style>
 </defs>
 <g id="Layer_x0020_1">
  <metadata id="CorelCorpID_0Corel-Layer"/>
  <g id="_1573723684768">
   <path class="fil0" d="M797 1075c18,-19 30,-55 80,-121 111,-148 288,-280 524,-336 523,-125 946,230 1066,614 165,524 -158,964 -526,1114 -232,94 -499,85 -719,-16 -222,-103 -302,-216 -419,-392l-638 0c10,125 165,382 220,454 903,1189 2731,532 2720,-905 -6,-777 -590,-1370 -1297,-1472 -430,-61 -817,70 -1085,265 -126,91 -261,223 -350,350 -47,66 -86,135 -126,215 -21,43 -35,74 -54,126 -27,69 -32,95 -29,104l633 0z"/>
   <path class="fil1" d="M4844 723c373,0 639,395 486,789 -155,398 -562,323 -1030,322l0 -1090 544 -21zm-1098 2270l546 10 9 -613c564,-48 836,97 1250,-255 587,-499 504,-1575 -344,-1902 -212,-82 -467,-62 -705,-62 -142,0 -435,1 -755,11l-1 2811z"/>
   <path class="fil1" d="M7150 1319c367,-90 644,155 714,434 88,349 -162,638 -427,704 -759,189 -1041,-954 -287,-1138zm817 -332c-183,-101 -278,-191 -550,-215 -622,-56 -1190,365 -1244,1038 -64,783 699,1359 1404,1161 76,-21 218,-90 261,-94l10 126c93,11 189,5 282,5 173,0 127,12 264,-17l-7 -2204c-39,-22 -55,-5 -64,-1 -1,0 -40,24 -47,29l-309 172z"/>
   <path class="fil1" d="M9132 3592c83,17 504,23 559,-6 56,-32 139,-273 163,-331 51,-118 100,-234 152,-353l884 -2123 -485 -4c-99,0 -97,25 -130,106 -25,60 -46,109 -71,167l-394 914c-4,8 -15,35 -19,41l-25 35 -496 -1155c-57,-140 -45,-108 -411,-108 -313,0 -266,-89 32,635l539 1260c45,102 43,89 -2,190 -45,102 -305,667 -296,732z"/>
   <path class="fil2" d="M608 1758l165 -4 7 -500 -769 0c-15,103 -14,405 -1,504l598 0z"/>
  </g>
 </g>
</svg>
